<svg width="22" height="27" viewBox="0 0 22 27" fill="none" xmlns="http://www.w3.org/2000/svg">
<path d="M11.5613 7.9257C10.5393 7.9257 8.95734 6.7637 7.29134 6.8057C5.09334 6.8337 3.07734 8.0797 1.94334 10.0537C-0.338656 14.0157 1.35534 19.8677 3.58134 23.0877C4.67334 24.6557 5.96134 26.4197 7.66934 26.3637C9.30734 26.2937 9.92334 25.2997 11.9113 25.2997C13.8853 25.2997 14.4453 26.3637 16.1813 26.3217C17.9453 26.2937 19.0653 24.7257 20.1433 23.1437C21.3893 21.3237 21.9073 19.5597 21.9353 19.4617C21.8933 19.4477 18.5053 18.1457 18.4633 14.2257C18.4353 10.9497 21.1373 9.3817 21.2633 9.3117C19.7233 7.0577 17.3573 6.8057 16.5313 6.7497C14.3753 6.5817 12.5693 7.9257 11.5613 7.9257ZM15.2013 4.6217C16.1113 3.5297 16.7133 2.0037 16.5453 0.491699C15.2433 0.547699 13.6753 1.3597 12.7373 2.4517C11.8973 3.4177 11.1693 4.9717 11.3653 6.4557C12.8073 6.5677 14.2913 5.7137 15.2013 4.6217Z" fill="white"/>
</svg>
