<svg width="27" height="26" viewBox="0 0 27 26" fill="none" xmlns="http://www.w3.org/2000/svg">
<path d="M10.3623 25.0329C9.09045 25.0329 7.97757 24.7944 7.02367 24.3174C6.06977 23.8405 5.29757 23.1705 4.70706 22.3074L4.23011 24.6241H0.346375V0.0952148H4.70706V10.1452C5.25214 9.39573 5.96757 8.73709 6.85333 8.16929C7.76181 7.60149 8.93147 7.3176 10.3623 7.3176C11.9521 7.3176 13.3716 7.7037 14.6208 8.4759C15.87 9.24811 16.8579 10.3042 17.5847 11.6442C18.3115 12.9842 18.6749 14.5059 18.6749 16.2093C18.6749 17.9127 18.3115 19.4344 17.5847 20.7744C16.8579 22.0917 15.87 23.1364 14.6208 23.9086C13.3716 24.6581 11.9521 25.0329 10.3623 25.0329ZM9.44249 21.2173C10.8279 21.2173 11.9749 20.7517 12.8833 19.8205C13.7918 18.8893 14.246 17.6856 14.246 16.2093C14.246 14.733 13.7918 13.5179 12.8833 12.564C11.9749 11.6101 10.8279 11.1332 9.44249 11.1332C8.03435 11.1332 6.87604 11.6101 5.96757 12.564C5.0818 13.4952 4.63892 14.699 4.63892 16.1752C4.63892 17.6515 5.0818 18.8666 5.96757 19.8205C6.87604 20.7517 8.03435 21.2173 9.44249 21.2173Z" fill="white"/>
<path d="M23.422 24.8625C22.6271 24.8625 21.9684 24.6127 21.4461 24.113C20.9464 23.6134 20.6966 23.0115 20.6966 22.3074C20.6966 21.5807 20.9464 20.9674 21.4461 20.4678C21.9684 19.9681 22.6271 19.7183 23.422 19.7183C24.2169 19.7183 24.8642 19.9681 25.3639 20.4678C25.8862 20.9674 26.1474 21.5807 26.1474 22.3074C26.1474 23.0115 25.8862 23.6134 25.3639 24.113C24.8642 24.6127 24.2169 24.8625 23.422 24.8625Z" fill="white"/>
</svg>
