<svg width="25" height="25" viewBox="0 0 25 25" fill="none" xmlns="http://www.w3.org/2000/svg">
<path d="M9.66658 22.3329H4.99992V24.6662H2.66659V22.3329H1.49992C1.1905 22.3329 0.893753 22.21 0.674961 21.9912C0.456168 21.7724 0.333252 21.4756 0.333252 21.1662V3.66622C0.333252 3.3568 0.456168 3.06005 0.674961 2.84126C0.893753 2.62247 1.1905 2.49955 1.49992 2.49955H9.66658V0.854549C9.66662 0.769873 9.6851 0.68622 9.72072 0.609402C9.75635 0.532584 9.80827 0.464443 9.87288 0.409712C9.93749 0.354981 10.0132 0.314973 10.0949 0.292467C10.1765 0.26996 10.2621 0.265496 10.3456 0.279383L22.6912 2.33738C22.9637 2.38267 23.2112 2.52313 23.3898 2.73376C23.5684 2.9444 23.6665 3.21156 23.6666 3.48772V5.99955H24.8333V8.33288H23.6666V16.4995H24.8333V18.8329H23.6666V21.3447C23.6665 21.6209 23.5684 21.888 23.3898 22.0987C23.2112 22.3093 22.9637 22.4498 22.6912 22.4951L21.3333 22.7214V24.6662H18.9999V23.111L10.3456 24.553C10.2621 24.5669 10.1765 24.5625 10.0949 24.54C10.0132 24.5175 9.93749 24.4775 9.87288 24.4227C9.80827 24.368 9.75635 24.2998 9.72072 24.223C9.6851 24.1462 9.66662 24.0626 9.66658 23.9779V22.3329ZM11.9999 21.9129L21.3333 20.3566V4.47588L11.9999 2.92072V21.9117V21.9129ZM17.2499 15.3329C16.2839 15.3329 15.4999 14.0262 15.4999 12.4162C15.4999 10.8062 16.2839 9.49955 17.2499 9.49955C18.2159 9.49955 18.9999 10.8062 18.9999 12.4162C18.9999 14.0262 18.2159 15.3329 17.2499 15.3329Z" fill="#5BB5A2"/>
</svg>
