<svg width="18" height="24" viewBox="0 0 18 24" fill="none" xmlns="http://www.w3.org/2000/svg">
<path d="M3.16659 2.66634V21.333H14.8333V2.66634H3.16659ZM1.99992 0.333008H15.9999C16.3093 0.333008 16.6061 0.455924 16.8249 0.674717C17.0437 0.893509 17.1666 1.19026 17.1666 1.49967V22.4997C17.1666 22.8091 17.0437 23.1058 16.8249 23.3246C16.6061 23.5434 16.3093 23.6663 15.9999 23.6663H1.99992C1.6905 23.6663 1.39375 23.5434 1.17496 23.3246C0.956168 23.1058 0.833252 22.8091 0.833252 22.4997V1.49967C0.833252 1.19026 0.956168 0.893509 1.17496 0.674717C1.39375 0.455924 1.6905 0.333008 1.99992 0.333008ZM8.99992 17.833C9.30934 17.833 9.60608 17.9559 9.82488 18.1747C10.0437 18.3935 10.1666 18.6903 10.1666 18.9997C10.1666 19.3091 10.0437 19.6058 9.82488 19.8246C9.60608 20.0434 9.30934 20.1663 8.99992 20.1663C8.6905 20.1663 8.39375 20.0434 8.17496 19.8246C7.95617 19.6058 7.83325 19.3091 7.83325 18.9997C7.83325 18.6903 7.95617 18.3935 8.17496 18.1747C8.39375 17.9559 8.6905 17.833 8.99992 17.833Z" fill="#5BB5A2"/>
</svg>
