<svg width="28" height="22" viewBox="0 0 28 22" fill="none" xmlns="http://www.w3.org/2000/svg">
<path d="M0.804932 5.16319C4.53721 2.13956 9.19659 0.492917 13.9999 0.500023C18.9991 0.500023 23.5899 2.24652 27.1949 5.16319L25.7296 6.97852C22.4118 4.29061 18.2699 2.82687 13.9999 2.83336C9.5561 2.83336 5.47627 4.38502 2.27027 6.97852L0.804932 5.16319ZM4.46943 9.70152C7.16513 7.51752 10.5305 6.32815 13.9999 6.33336C17.4691 6.3282 20.8344 7.51711 23.5304 9.70036L22.0639 11.5157C19.7829 9.66808 16.9354 8.66204 13.9999 8.66669C10.9456 8.66669 8.13977 9.73419 5.93593 11.5157L4.46943 9.70036V9.70152ZM8.1351 14.2399C9.79392 12.8957 11.8649 12.1637 13.9999 12.1667C16.2213 12.1667 18.2618 12.9425 19.8648 14.2387L18.3983 16.054C17.1541 15.0463 15.601 14.4975 13.9999 14.5C12.3339 14.5 10.8033 15.0822 9.6016 16.054L8.1351 14.2387V14.2399ZM11.8008 18.7782C12.4227 18.2739 13.1992 17.9991 13.9999 18C14.8329 18 15.5983 18.2917 16.1991 18.777L13.9999 21.5L11.8008 18.777V18.7782Z" fill="#5BB5A2"/>
</svg>
